<?xml version="1.0" standalone="no"?><!DOCTYPE svg PUBLIC "-//W3C//DTD SVG 1.1//EN" "http://www.w3.org/Graphics/SVG/1.1/DTD/svg11.dtd"><svg t="1534505897386" class="icon" style="" viewBox="0 0 1024 1024" version="1.1" xmlns="http://www.w3.org/2000/svg" p-id="2210" xmlns:xlink="http://www.w3.org/1999/xlink" width="64" height="64"><defs><style type="text/css"></style></defs><path d="M512 991.968c-264.693 0-480-215.307-480-479.968s215.307-480 480-480c264.661 0 480 215.339 480 480-0.032 264.661-215.339 479.968-480 479.968zM512 64.236c-246.931 0-447.764 200.865-447.764 447.764 0 246.898 200.865 447.731 447.764 447.731s447.764-200.833 447.764-447.731c-0.032-246.898-200.865-447.764-447.764-447.764z" fill="#231F20" p-id="2211"></path><path d="M820.632 874.111c-2.256-0.011-4.401-0.47-6.357-1.289-202.373-84.395-212.818-117.824-216.751-130.429-0.45-1.425-0.71-3.064-0.71-4.762 0-0.014 0-0.029 0-0.043v-40.648c0.001-4.395 1.761-8.378 4.613-11.287 25.27-25.882 44.87-61.793 56.636-103.862 1.21-4.219 3.981-7.651 7.63-9.702 9.681-6.867 17.095-19.149 18.997-32.785 0.304-2.060 0.477-4.438 0.477-6.856 0-12.052-4.309-23.098-11.469-31.681-2.183-2.683-3.544-6.243-3.547-10.121v-91.022c0-92.97-53.867-142.131-155.798-142.131-100.513 0-155.863 50.483-155.863 142.131v91.036c0 3.707-1.289 7.285-3.61 10.154-7.061 8.512-11.346 19.55-11.346 31.588 0 2.435 0.175 4.829 0.514 7.17 1.87 13.337 9.252 25.619 20.277 33.355 3.432 2.423 5.84 6.098 6.56 10.348 11.428 40.553 31.028 76.464 56.333 102.383 2.846 2.915 4.604 6.904 4.61 11.303v40.63c-0.006 1.718-0.269 3.374-0.754 4.931-6.628 21.18-36.737 55.060-212.071 127.979-1.828 0.781-3.956 1.235-6.189 1.235-8.907 0-16.128-7.221-16.128-16.128 0-6.674 4.054-12.401 9.833-14.854 159.515-66.35 188.14-96.523 193.073-106.226v-31.173c-25.789-28.143-45.937-65.15-58.573-107.67-18.222-15.145-29.738-37.817-29.738-63.177 0-17.698 5.608-34.086 15.144-47.484l-0.171-85.401c0-109.185 70.308-174.367 188.099-174.367 119.5 0 188.035 63.57 188.035 174.367v85.62c9.385 13.155 15.006 29.559 15.006 47.276 0 25.39-11.543 48.084-29.667 63.121-12.772 42.629-32.888 79.604-58.644 107.714v31.012c4.32 7.64 31.301 39.328 197.835 108.733 5.826 2.526 9.827 8.226 9.827 14.861 0 8.906-7.209 16.129-16.111 16.15z" fill="#231F20" p-id="2212"></path></svg>