<svg class="messages-tabIcon" width="18px" height="18px" viewBox="0 0 1024 1024" version="1.1" xmlns="http://www.w3.org/2000/svg"><path d="M895.937322 402.045749 895.937322 301.254182c0-44.199665-33.95023-81.634252-78.149894-81.634252L434.43339 219.61993c0 0 0.01228 0.962931 0.01228 1.044796 0 26.520003-21.49864 48.419779-48.018643 48.419779-26.520003 0-48.018643-22.100344-48.018643-48.619324 0-0.081864 0.011256-0.844228 0.01228-0.844228L209.555713 219.620953c-44.199665 0-82.121346 37.434587-82.121346 81.634252l0 101.093443c39.908942 22.180162 63.762209 63.444984 63.762209 110.724801s-23.853267 88.544639-63.762209 110.724801l0 101.619422c0 44.199665 37.921681 78.511121 82.121346 78.511121L338.421686 803.928792c0.132006-23.536043 21.568225-47.77612 48.006364-47.77612 26.438139 0 47.874357 24.240077 48.006364 47.77612l383.354038 0c44.199665 0 78.149894-34.311457 78.149894-78.511121l0-101.316523c-35.815717-22.10546-64.287165-63.530942-64.287165-111.026676C831.650157 465.576691 860.121606 424.151209 895.937322 402.045749zM386.427026 658.966213c-26.520003 0-48.018643-21.49864-48.018643-48.018643 0-26.520003 21.49864-48.018643 48.018643-48.018643 26.520003 0 48.018643 21.49864 48.018643 48.018643C434.44567 637.467573 412.94703 658.966213 386.427026 658.966213zM386.427026 464.224904c-26.520003 0-48.018643-21.49864-48.018643-48.018643 0-26.520003 21.49864-48.018643 48.018643-48.018643 26.520003 0 48.018643 21.49864 48.018643 48.018643C434.44567 442.726264 412.94703 464.224904 386.427026 464.224904z" /></svg>