<?xml version="1.0" standalone="no"?><!DOCTYPE svg PUBLIC "-//W3C//DTD SVG 1.1//EN" "http://www.w3.org/Graphics/SVG/1.1/DTD/svg11.dtd"><svg t="1514115867848" class="icon" style="" viewBox="0 0 1176 1024" version="1.1" xmlns="http://www.w3.org/2000/svg" p-id="17745" xmlns:xlink="http://www.w3.org/1999/xlink" width="73.5" height="64"><defs><style type="text/css"></style></defs><path d="M987.963915 370.905872c-20.196766-37.474043 0 0 0 0s140.571234 216.042213 140.571234 257.111149v263.40766c0 41.090723-33.486979 74.381617-74.817362 74.381617H118.39183C77.083234 965.806298 43.574468 932.493617 43.574468 891.446468v-263.407659C43.574468 586.948085 169.286809 393.063489 184.167489 369.729362c14.880681-23.334128 32.724426-36.057872 58.346213-36.057873l687.34366-0.261446c44.42417 0 69.501277 58.673021 58.106553 37.474042z m-245.542128 236.78366h324.194043l-110.592-200.464341c-16.362213-26.732936-20.196766-34.859574-42.768341-34.859574H265.237787c-28.061957-1.089362-48.040851 34.859574-48.040851 34.859574l-108.783659 200.464341h321.274553s25.970383 0.108936 34.598127 24.401702c-0.152511 2.396596-0.370383 4.793191-0.370383 7.233362a121.638128 121.638128 0 1 0 243.276256 0c0-1.917277-0.217872-3.769191-0.283234-5.664681 3.246298-10.327149 12.026553-25.948596 35.513191-25.948596zM351.86383 230.378213l-82.660766-78.477617A22.13583 22.13583 0 0 1 299.661617 119.829787L382.322383 198.26383a22.13583 22.13583 0 0 1-30.48034 32.114383z m227.807319-34.66349a22.070468 22.070468 0 0 1-6.906553-15.468936l-2.963064-113.947234a22.13583 22.13583 0 1 1 44.249872-1.17651l2.984851 113.947234a22.13583 22.13583 0 0 1-37.365106 16.645446z m214.342808 30.56749a22.13583 22.13583 0 0 1-0.806127-31.308256l78.45583-82.660766a22.13583 22.13583 0 0 1 32.114383 30.480341l-78.477617 82.660766a22.13583 22.13583 0 0 1-31.286469 0.827915z" fill="#C1C1C1" p-id="17746"></path></svg>