<?xml version="1.0" encoding="UTF-8"?><svg version="1.1" viewBox="0 0 20 20" xmlns="http://www.w3.org/2000/svg" xmlns:xlink="http://www.w3.org/1999/xlink"><!--Generated by IJSVG (https://github.com/iconjar/IJSVG)--><path d="M18.5215,1.4776c-0.389526,-0.390747 -1.02338,-0.390808 -1.414,-0.0001221l-15.629,15.631c-0.390625,0.390625 -0.390625,1.02441 0.0001221,1.414c0.390625,0.390686 1.02338,0.390625 1.414,-6.1e-05l15.6288,-15.6308c0.390747,-0.390625 0.390747,-1.02338 6.11e-05,-1.414Zm-15.4131,12.0197l2.55933,-2.55847c-0.0695801,-0.303101 -0.113037,-0.615356 -0.113037,-0.938843c0,-2.37891 1.99023,-4.30859 4.44531,-4.30859c0.286133,0 0.564453,0.0314941 0.835449,0.081665l1.20215,-1.20166c-0.643555,-0.10437 -1.31836,-0.17102 -2.0376,-0.17102c-6.56055,0 -10,4.83203 -10,5.59961c0,0.423462 1.05737,2.09082 3.1084,3.49731Zm13.7866,-6.99268l-2.56201,2.56128c0.0688477,0.301514 0.111328,0.612549 0.111328,0.934082c0,2.37891 -1.98926,4.30664 -4.44434,4.30664c-0.283936,0 -0.559814,-0.0317383 -0.828857,-0.0810547l-1.2041,1.20361c0.642334,0.103882 1.31567,0.17041 2.03296,0.17041c6.56055,0 10,-4.83398 10,-5.59961c0,-0.424316 -1.05615,-2.08984 -3.10498,-3.49536Z" fill="#000"></path></svg>