<?xml version="1.0" standalone="no"?><!DOCTYPE svg PUBLIC "-//W3C//DTD SVG 1.1//EN" "http://www.w3.org/Graphics/SVG/1.1/DTD/svg11.dtd"><svg t="1534562613017" class="icon" style="" viewBox="0 0 1821 1024" version="1.1" xmlns="http://www.w3.org/2000/svg" p-id="5028" xmlns:xlink="http://www.w3.org/1999/xlink" width="113.8125" height="64"><defs><style type="text/css"></style></defs><path d="M909.867 816.133c-28.134 0-51.067 22.934-51.067 51.067s22.933 51.067 51.067 51.067c28.133 0 51.066-22.934 51.066-51.067 0-28.267-22.933-51.067-51.066-51.067z" p-id="5029" fill="#8a8a8a"></path><path d="M1162.533 12H657.067C614.533 12 580 46.533 580 89.067v848.266c0 42.534 34.533 77.067 77.067 77.067h505.466c42.534 0 77.067-34.533 77.067-77.067V89.067c0.133-42.534-34.533-77.067-77.067-77.067zM657.067 63.467h505.466c14.134 0 25.734 11.6 25.734 25.733v635.467h-556.8v-635.6c0-14.134 11.466-25.6 25.6-25.6z m505.466 899.6H657.067c-14.134 0-25.734-11.467-25.734-25.734V780.4h556.934v156.933a25.664 25.664 0 0 1-25.734 25.734z" p-id="5030" fill="#8a8a8a"></path></svg>