<?xml version="1.0" standalone="no"?><!DOCTYPE svg PUBLIC "-//W3C//DTD SVG 1.1//EN" "http://www.w3.org/Graphics/SVG/1.1/DTD/svg11.dtd"><svg t="1534522046872" class="icon" style="" viewBox="0 0 1024 1024" version="1.1" xmlns="http://www.w3.org/2000/svg" p-id="3451" xmlns:xlink="http://www.w3.org/1999/xlink" width="64" height="64"><defs><style type="text/css"></style></defs><path d="M905.966776 852.140981l102.13147-102.13147a36.071156 36.071156 0 1 0-51.010626-50.980567l-102.13147 102.101411-102.131471-102.101411a36.071156 36.071156 0 0 0-51.010626 51.010626l102.13147 102.101411-102.13147 102.131471a36.071156 36.071156 0 0 0 51.010626 51.010626l102.131471-102.13147 102.13147 102.13147a36.071156 36.071156 0 1 0 51.010626-51.010626zM781.721683 329.990959a159.614865 159.614865 0 0 0-11.933541-41.561988c-1.452866-99.13556-28.927063-175.135482-81.701168-225.975772C624.501542 1.212392 546.567805-0.150296 535.085154 0.01002h-50.158946c-16.322198 0.130257-85.709075 4.138163-143.763596 59.998356-52.754066 50.750113-80.158124 127.571655-81.63103 228.450655a159.584806 159.584806 0 0 0-11.933541 41.551967c-5.230318 37.473923 5.370594 71.81166 29.909 97.602537 11.813304 26.812893 52.313196 117.561909 71.981996 146.859703 0.571127 1.763479 1.482925 7.755299-0.260514 17.52457a86.390419 86.390419 0 0 1-11.54277 29.878941c-3.266444 5.160179-11.97362 17.223977-22.23386 17.734985-6.202235 0.310613-13.426486 0.470929-21.041508 0.651285-59.276933 1.362688-158.472612 3.627155-221.386719 83.695102-23.736825 30.179534-43.355526 66.370927-55.259007 101.931074-14.09781 42.083015-16.853246 81.62101-8.015813 114.225328 10.430576 38.305564 36.141294 66.451085 74.346661 81.400575l6.342511 2.484902h445.428678a36.071156 36.071156 0 1 0 0-72.142312H104.796342c-13.406446-6.643105-21.542496-16.522593-25.400106-30.690542-5.009883-18.526547-2.635198-44.227245 6.783382-72.372766A274.481458 274.481458 0 0 1 129.745558 768.516018c41.8726-53.295133 113.794477-54.938375 166.328109-56.110687 8.156089-0.190376 15.851269-0.360712 23.04546-0.721423 35.860741-1.793538 67.613378-25.350007 87.171961-64.627488 16.803147-33.816709 24.34803-81.731228 3.326562-112.562046-13.546723-19.748958-49.417484-97.672675-68.81575-142.160434l-3.00593-7.013836-5.651147-5.14014c-6.883579-6.312452-15.761091-17.173878-13.306249-38.536018a85.47862 85.47862 0 0 1 8.226227-27.303861l4.558994-7.785358v-9.779291c-0.030059-83.945596 19.718899-145.827668 58.635668-183.902777 39.678272-38.816572 87.17196-40.660209 94.636685-40.710307h52.453473c8.426623 0.140277 60.238831 2.705337 101.480186 43.084991 39.077086 38.205366 58.876142 99.305896 58.876142 181.598231v9.40856l4.629132 8.236247a85.418501 85.418501 0 0 1 7.935654 25.490284c3.126167 22.424235-6.011859 33.696472-13.085814 40.219339l-5.631108 5.160179-3.00593 7.013836c-19.428325 44.487759-55.269027 122.401456-68.715552 142.120355A36.071156 36.071156 0 1 0 679.439916 575.134543c19.428325-28.63649 60.509364-120.53778 72.362747-147.541048 24.548426-25.780857 35.149338-60.128613 29.91902-97.602536z" fill="#8a8a8a" p-id="3452"></path></svg>