<?xml version="1.0" standalone="no"?><!DOCTYPE svg PUBLIC "-//W3C//DTD SVG 1.1//EN" "http://www.w3.org/Graphics/SVG/1.1/DTD/svg11.dtd"><svg t="1534562657811" class="icon" style="" viewBox="0 0 1117 1024" version="1.1" xmlns="http://www.w3.org/2000/svg" p-id="6344" xmlns:xlink="http://www.w3.org/1999/xlink" width="69.8125" height="64"><defs><style type="text/css"></style></defs><path d="M1024 837.818182h-372.363636v139.636363h162.909091a23.272727 23.272727 0 0 1 0 46.545455h-512a23.272727 23.272727 0 0 1 0-46.545455H465.454545v-139.636363H93.090909a93.090909 93.090909 0 0 1-93.090909-93.090909V93.090909a93.090909 93.090909 0 0 1 93.090909-93.090909h930.909091a93.090909 93.090909 0 0 1 93.090909 93.090909v651.636364a93.090909 93.090909 0 0 1-93.090909 93.090909z m-418.909091 139.636363v-139.636363h-93.090909v139.636363h93.090909zM1070.545455 93.090909a46.545455 46.545455 0 0 0-46.545455-46.545454H93.090909a46.545455 46.545455 0 0 0-46.545454 46.545454v558.545455h1024V93.090909z m0 605.090909H46.545455v46.545455a46.545455 46.545455 0 0 0 46.545454 46.545454h930.909091a46.545455 46.545455 0 0 0 46.545455-46.545454v-46.545455z" p-id="6345" fill="#8a8a8a"></path></svg>