<?xml version="1.0" standalone="no"?><!DOCTYPE svg PUBLIC "-//W3C//DTD SVG 1.1//EN" "http://www.w3.org/Graphics/SVG/1.1/DTD/svg11.dtd"><svg t="1507522359627" class="icon" style="" viewBox="0 0 1024 1024" version="1.1" xmlns="http://www.w3.org/2000/svg" p-id="2640" xmlns:xlink="http://www.w3.org/1999/xlink" width="200" height="200"><defs><style type="text/css"></style></defs><path d="M867.8 540.8c-16.5 0-30.4 12.6-31.9 29.1-3 33.7-11.1 66.4-24.2 97.6-16.3 38.7-39.7 73.5-69.5 103.4-29.8 29.9-64.5 53.3-103.1 69.7-40 17-82.5 25.6-126.3 25.6-43.8 0-86.3-8.6-126.3-25.6-38.6-16.4-73.3-39.8-103.1-69.7C253.6 741 230.2 706.2 213.9 667.5 196.8 627.2 188.2 584.7 188.2 540.8s8.6-86.5 25.5-126.6c16.3-38.7 39.7-73.5 69.5-103.4 29.8-29.9 64.5-53.3 103.1-69.7 40-17 82.5-25.6 126.3-25.6s86.3 8.6 126.3 25.6c18.1 7.7 35.3 16.9 51.5 27.6 0 0 0.8 0.5 2.2 1.3 6.1 4.2 12.2 8.5 18.1 13-6.3-5.3-12.9-9.8-16.8-12.3 0.1 0 0.1 0 0.2 0 3.9 2.5 10.5 7 16.6 12.2 0.8 0.7 1.6 1.4 2.4 2.1L612.2 285c-17.7 0-32 14.3-32 32s14.3 32 32 32l191 0c17.7 0 32-14.3 32-32L835.2 126c0-17.7-14.3-32-32-32s-32 14.3-32 32l0 124.1c-11.5-10.8-23.7-19.8-28.7-23.3 0 0-5.7-4.1-6.4-4.5l-0.2 0c-22.5-15.9-46.6-29.3-72.2-40.1C615.9 162 565 151.7 512.5 151.7c-52.4 0-103.3 10.3-151.3 30.6C314.9 201.9 273.4 230 237.7 265.7c-35.4 35.6-63.4 77.2-83 123.6-20.2 48-30.5 99-30.5 151.5s10.3 103.5 30.5 151.5c19.6 46.4 47.6 88 83.2 123.7 35.7 35.7 77.2 63.8 123.5 83.4 47.9 20.3 98.8 30.6 151.3 30.6 52.4 0 103.3-10.3 151.3-30.6 46.3-19.6 87.8-47.7 123.5-83.4 35.6-35.7 63.6-77.4 83.2-123.7 15.7-37.3 25.4-76.4 29-116.6C901.3 557 886.6 540.8 867.8 540.8z" p-id="2641" fill="#8a8a8a"></path></svg>