<?xml version="1.0" encoding="UTF-8"?><svg version="1.1" viewBox="0 0 20 20" xmlns="http://www.w3.org/2000/svg" xmlns:xlink="http://www.w3.org/1999/xlink"><!--Generated by IJSVG (https://github.com/iconjar/IJSVG)--><path d="M10,4.4c-6.561,0 -10,4.832 -10,5.6c0,0.766 3.439,5.6 10,5.6c6.56,0 10,-4.834 10,-5.6c0,-0.768 -3.44,-5.6 -10,-5.6Zm0,9.907c-2.455,0 -4.445,-1.928 -4.445,-4.307c0,-2.379 1.99,-4.309 4.445,-4.309c2.455,0 4.444,1.93 4.444,4.309c1.77636e-15,2.379 -1.989,4.307 -4.444,4.307Zm0,-4.307c-0.407,-0.447 0.663,-2.154 0,-2.154c-1.228,0 -2.223,0.965 -2.223,2.154c0,1.189 0.995,2.154 2.223,2.154c1.227,0 2.223,-0.965 2.223,-2.154c1.77636e-15,-0.547 -1.877,0.379 -2.223,0Z" fill="#000"></path></svg>